<svg xmlns="http://www.w3.org/2000/svg" viewBox="0 0 22 16.28">
  <defs>
    <style>
      .cls-1 {
        fill: #01396f;
      }
    </style>
  </defs>
  <g id="noun_Camera_78831_000000" transform="translate(0 -0.171)">
    <circle id="Oval" class="cls-1" cx="3.96" cy="3.96" r="3.96" transform="translate(7.04 5.235)"/>
    <path id="Shape" class="cls-1" d="M20.68,16.28H1.32A1.322,1.322,0,0,1,0,14.96v-11A1.322,1.322,0,0,1,1.32,2.64H5.249a.88.88,0,0,0,.733-.391L7.219.392A.876.876,0,0,1,7.951,0h6.1a.879.879,0,0,1,.733.392l1.237,1.856a.877.877,0,0,0,.732.391H20.68A1.321,1.321,0,0,1,22,3.96v11A1.321,1.321,0,0,1,20.68,16.28ZM11,3.743a5.28,5.28,0,1,0,5.28,5.28A5.286,5.286,0,0,0,11,3.743Zm6.156.441a.436.436,0,0,0-.436.436v.009a.436.436,0,0,0,.436.435h.009a.436.436,0,0,0,.436-.435V4.62a.436.436,0,0,0-.436-.436Z" transform="translate(0 0.171)"/>
    <rect id="Rectangle-path" class="cls-1" width="1.76" height="0.88" transform="translate(2.64 1.051)"/>
  </g>
</svg>
