<svg id="noun_Couple_1407172_ffffff_Copy" data-name="noun_Couple_1407172_ffffff Copy" xmlns="http://www.w3.org/2000/svg" viewBox="0 0 62 44">
  <defs>
    <style>
      .cls-1 {
        fill: #01396f;
      }
    </style>
  </defs>
  <path id="Shape" class="cls-1" d="M34,44a2,2,0,0,1-2-2A14,14,0,1,0,4,42a2,2,0,0,1-4,0,18,18,0,0,1,34.585-7.007A17.888,17.888,0,0,1,36,42,2,2,0,0,1,34,44ZM18,22A11,11,0,0,1,10.222,3.222,11,11,0,1,1,25.778,18.778,10.925,10.925,0,0,1,18,22ZM18,4a7,7,0,1,0,7,7A7.008,7.008,0,0,0,18,4Z" transform="translate(26)"/>
  <path id="Shape-2" data-name="Shape" class="cls-1" d="M34,44a2,2,0,0,1-2-2A14,14,0,1,0,4,42a2,2,0,0,1-4,0,18,18,0,0,1,34.585-7.007A17.888,17.888,0,0,1,36,42,2,2,0,0,1,34,44ZM18,22A11,11,0,0,1,10.222,3.222,11,11,0,1,1,25.778,18.778,10.925,10.925,0,0,1,18,22ZM18,4a7,7,0,1,0,7,7A7.008,7.008,0,0,0,18,4Z"/>
</svg>
