<svg xmlns="http://www.w3.org/2000/svg" viewBox="0 0 69.999 67">
  <defs>
    <style>
      .cls-1 {
        fill: #01396f;
      }
    </style>
  </defs>
  <g id="noun_Museum_189705_000000" transform="translate(-0.002)">
    <path id="Shape" class="cls-1" d="M25.588,26c-1.06,0-1.531-.957-1.531-1.994V4.383l-9.211,8.934a2.055,2.055,0,0,1-2.773,0L2.8,4.383V24.244C2.8,25.281,2.453,26,1.392,26S0,25.281,0,24.244V2A1.827,1.827,0,0,1,1.224.242a2.066,2.066,0,0,1,2.2.4l10.2,9.729L23.574.561a2.039,2.039,0,0,1,2.2-.4A1.991,1.991,0,0,1,27,1.917V24.006C26.918,25.2,26.648,26,25.588,26Z" transform="translate(22 29)"/>
    <path id="Shape-2" data-name="Shape" class="cls-1" d="M1.5,26A1.775,1.775,0,0,1,0,24.08V1.92A1.775,1.775,0,0,1,1.5,0,1.775,1.775,0,0,1,3,1.92V24.08A1.723,1.723,0,0,1,1.5,26Z" transform="translate(56 29)"/>
    <path id="Shape-3" data-name="Shape" class="cls-1" d="M1.5,26A1.774,1.774,0,0,1,0,24.08V1.92A1.774,1.774,0,0,1,1.5,0,1.774,1.774,0,0,1,3,1.92V24.08A1.644,1.644,0,0,1,1.5,26Z" transform="translate(11 29)"/>
    <path id="Shape-4" data-name="Shape" class="cls-1" d="M54.012,3H1.988C.911,3,0,2.313,0,1.5S.911,0,1.988,0H54.012C55.089,0,56,.688,56,1.5S55.089,3,54.012,3Z" transform="translate(7 58)"/>
    <path id="Shape-5" data-name="Shape" class="cls-1" d="M63.975,3H1.944A1.791,1.791,0,0,1,0,1.5,1.791,1.791,0,0,1,1.944,0H64.056A1.791,1.791,0,0,1,66,1.5C66,2.313,65.109,3,63.975,3Z" transform="translate(1 64)"/>
    <path id="Shape-6" data-name="Shape" class="cls-1" d="M68.035,25H1.964A1.944,1.944,0,0,1,.081,23.646,1.918,1.918,0,0,1,.9,21.494L33.812.3a2.192,2.192,0,0,1,2.21,0L68.69,21.255A2,2,0,0,1,70,23.088,1.966,1.966,0,0,1,68.035,25ZM34.959,3.37,6.335,22.219H63.5Z"/>
  </g>
</svg>
